{"title":"Comedy Bang Bang S05E07 PROPER 1080p WEB-DL AAC2 0 H 264-BTN mkv","uid":15127739,"size":845673102,"categoryP":"video","categoryS":"hd___tv_shows","magnet":"?xt=urn:btih:010e7fc621ba1d325e97a776d1a766caf8d298d8&amp;dn=Comedy+Bang+Bang+S05E07+PROPER+1080p+WEB-DL+AAC2+0+H+264-BTN+mkv&amp;tr=udp%3A%2F%2Ftracker.leechers-paradise.org%3A6969&amp;tr=udp%3A%2F%2Fzer0day.ch%3A1337&amp;tr=udp%3A%2F%2Fopen.demonii.com%3A1337&amp;tr=udp%3A%2F%2Ftracker.coppersurfer.tk%3A6969&amp;tr=udp%3A%2F%2Fexodus.desync.com%3A6969","seeders":4,"leechers":0,"uploader":"Anon_up","files":1,"time":1467128578,"description":"[image=9d0pXQz5CT]\r\n\r\n[b][color=&quot;red&quot;]USE TORRENT FILE INSTEAD OF MAGNET FOR FASTER DOWNLOAD\r\nSEED FOR LONG[/color][/b]\r\n[quote]Credits to BTN\r\n\r\nTorrent by RnC[/quote]\r\n\r\n\r\n[spoiler=&quot;MediaInfo&quot;]General \r\nUnique ID : 193433858846770218069440167826699160347 (0x9186018FD81747C8A76A79538C298B1B) \r\nComplete name : Comedy.Bang.Bang.S05E07.PROPER.1080p.WEB-DL.AAC2.0.H.264-BTN.mkv \r\nFormat : Matroska \r\nFormat version : Version 4 / Version 2 \r\nFile size : 806 MiB \r\nDuration : 21mn 36s \r\nOverall bit rate : 5 219 Kbps \r\nEncoded date : UTC 2016-06-27 20:49:49 \r\nWriting application : mkvmerge v9.2.0 ('Photograph') 64bit \r\nWriting library : libebml v1.3.3 + libmatroska v1.4.4 \r\n\r\nVideo \r\nID : 2 \r\nFormat : AVC \r\nFormat/Info : Advanced Video Codec \r\nFormat profile :    \r\nFormat settings, CABAC : Yes \r\nFormat settings, ReFrames : 4 frames \r\nCodec ID : V_MPEG4/ISO/AVC \r\nDuration : 21mn 36s \r\nBit rate : 5 070 Kbps \r\nWidth : 1 916 pixels \r\nHeight : 1 076 pixels \r\nDisplay aspect ratio : 16:9 \r\nFrame rate mode : Constant \r\nFrame rate : 23.976 (23976/1000) fps \r\nColor space : YUV \r\nChroma subsampling : 4:2:0 \r\nBit depth : 8 bits \r\nScan type : Progressive \r\nBits/(Pixel*Frame) : 0.103 \r\nStream size : 783 MiB (97%) \r\nLanguage : English \r\nDefault : Yes \r\nForced : No \r\nColor range : Limited \r\nColor primaries : BT.709 \r\nTransfer characteristics : BT.709 \r\nMatrix coefficients : BT.709 \r\n\r\nAudio \r\nID : 1 \r\nFormat : AAC \r\nFormat/Info : Advanced Audio Codec \r\nFormat profile : LC \r\nCodec ID : A_AAC \r\nDuration : 21mn 36s \r\nBit rate : 144 Kbps \r\nChannel(s) : 2 channels \r\nChannel positions : Front: L R \r\nSampling rate : 48.0 KHz \r\nFrame rate : 46.875 fps (1024 spf) \r\nCompression mode : Lossy \r\nStream size : 22.7 MiB (3%) \r\nLanguage : English \r\nDefault : Yes \r\nForced : No \r\n\r\nText \r\nID : 3 \r\nFormat : UTF-8 \r\nCodec ID : S_TEXT/UTF8 \r\nCodec ID/Info : UTF-8 Plain Text \r\nDuration : 21mn 30s \r\nBit rate : 129 bps \r\nCount of elements : 615 \r\nStream size : 20.4 KiB (0%) \r\nLanguage : English \r\nDefault : Yes \r\nForced : No \r\n\r\n[/spoiler]","torrent":{"xt":"urn:btih:010e7fc621ba1d325e97a776d1a766caf8d298d8","amp;dn":"Comedy+Bang+Bang+S05E07+PROPER+1080p+WEB-DL+AAC2+0+H+264-BTN+mkv","amp;tr":["udp%3A%2F%2Ftracker.leechers-paradise.org%3A6969","udp%3A%2F%2Fzer0day.ch%3A1337","udp%3A%2F%2Fopen.demonii.com%3A1337","udp%3A%2F%2Ftracker.coppersurfer.tk%3A6969","udp%3A%2F%2Fexodus.desync.com%3A6969"],"infoHash":"010e7fc621ba1d325e97a776d1a766caf8d298d8","infoHashBuffer":{"type":"Buffer","data":[1,14,127,198,33,186,29,50,94,151,167,118,209,167,102,202,248,210,152,216]},"announce":[],"urlList":[]}}